<svg version="1" xmlns="http://www.w3.org/2000/svg" width="1024" height="1024" viewBox="0 0 768.000000 768.000000"><path d="M0 384v384h768V0H0v384zm183.1-140.5c1.4 5 8.6 31.9 14.6 54.5 1.4 5.6 8.9 33.8 12.3 46.5 6.8 25.6 12.6 47.1 16.1 60.5 3.6 13.4 5.9 19.8 5.9 16.4 0-1 9.8-38.7 24.1-92.4 2.7-10.2 6-22.8 7.4-28 1.4-5.2 5.4-20.8 9-34.5 3.6-13.8 7-26 7.5-27.3l1-2.2 40.7.2 40.8.3.3 136.7.2 136.8h-51V406.6c0-57.5-.3-104.7-.8-105-.4-.2-8.3 29.6-17.5 66.2-9.2 36.7-21.1 83.9-26.4 104.9l-9.7 38.3h-53.4l-.6-2.3c-.3-1.2-7.5-29.9-16-63.7-8.6-33.8-20-79.5-25.6-101.5-5.5-21.9-10.5-40.4-11-40.9-.7-.7-1 34.3-1 103.7V511H99V237l41.2.2 41.2.3 1.7 6zm370.2-5.5c21.6 1.2 34 3.4 45.1 8 27 11.3 48.6 36.6 58.6 69 5.2 16.7 7.2 31.1 7.7 55.5.8 36.4-3.7 59.4-16.4 84-17.3 33.5-41.3 49.7-81.2 54.9-10 1.3-23.1 1.6-71.7 1.6H436V374.7c0-75 .3-136.7.7-137 1-1.1 95.9-.8 116.6.3z"/><path d="M491 374.4v90.8l34.8-.4 34.7-.4 8.4-2.9c10.2-3.5 19.2-9.3 23-14.8 11.5-16.8 16.1-37.7 16.1-72.6 0-53.4-13.4-78.9-45.6-87.1-6.2-1.6-12.9-2-39.4-2.6l-32-.7v90.7z"/></svg>